<svg width="47" height="32" viewBox="0 0 47 32" fill="none" xmlns="http://www.w3.org/2000/svg">
<g clip-path="url(#clip0_252_211)">
<path d="M1.10303 26.9092C1.10303 28.2594 1.69936 29.5543 2.76085 30.509C3.82233 31.4637 5.26202 32.0001 6.76318 32.0001H40.7241C42.2253 32.0001 43.665 31.4637 44.7265 30.509C45.7879 29.5543 46.3843 28.2594 46.3843 26.9092V12.9092H1.10303V26.9092ZM7.77393 20.0001C7.77393 19.2768 8.09339 18.5831 8.66204 18.0716C9.2307 17.5602 10.002 17.2728 10.8062 17.2728H15.6577C16.4619 17.2728 17.2332 17.5602 17.8018 18.0716C18.3705 18.5831 18.6899 19.2768 18.6899 20.0001V21.8183C18.6899 22.5416 18.3705 23.2353 17.8018 23.7467C17.2332 24.2582 16.4619 24.5455 15.6577 24.5455H10.8062C10.002 24.5455 9.2307 24.2582 8.66204 23.7467C8.09339 23.2353 7.77393 22.5416 7.77393 21.8183V20.0001Z" fill="#041E42"/>
<path d="M40.7241 0H6.76318C5.26202 0 3.82233 0.536362 2.76085 1.49109C1.69936 2.44582 1.10303 3.74072 1.10303 5.09091V7.45455H46.3843V5.09091C46.3843 3.74072 45.7879 2.44582 44.7265 1.49109C43.665 0.536362 42.2253 0 40.7241 0Z" fill="#041E42"/>
</g>
<defs>
<clipPath id="clip0_252_211">
<rect width="46" height="32" fill="white" transform="translate(0.764648)"/>
</clipPath>
</defs>
</svg>
