<svg width="19" height="20" viewBox="0 0 19 20" fill="none" xmlns="http://www.w3.org/2000/svg">
<path d="M4.875 8.8498C4.575 8.8498 4.35417 8.72064 4.2125 8.4623C4.07083 8.20397 4.075 7.9498 4.225 7.6998L8.4 1.0248C8.53333 0.791471 8.74167 0.674805 9.025 0.674805C9.30833 0.674805 9.51667 0.791471 9.65 1.0248L13.825 7.6998C13.975 7.9498 13.9792 8.20397 13.8375 8.4623C13.6958 8.72064 13.475 8.8498 13.175 8.8498H4.875ZM14.65 19.9998C13.4167 19.9998 12.3833 19.5831 11.55 18.7498C10.7167 17.9165 10.3 16.8831 10.3 15.6498C10.3 14.4165 10.7167 13.3831 11.55 12.5498C12.3833 11.7165 13.4167 11.2998 14.65 11.2998C15.8833 11.2998 16.9167 11.7165 17.75 12.5498C18.5833 13.3831 19 14.4165 19 15.6498C19 16.8831 18.5833 17.9165 17.75 18.7498C16.9167 19.5831 15.8833 19.9998 14.65 19.9998ZM0.75 19.3748C0.533333 19.3748 0.354167 19.304 0.2125 19.1623C0.0708334 19.0206 0 18.8415 0 18.6248V12.5248C0 12.3081 0.0708334 12.129 0.2125 11.9873C0.354167 11.8456 0.533333 11.7748 0.75 11.7748H6.85C7.06667 11.7748 7.24583 11.8456 7.3875 11.9873C7.52917 12.129 7.6 12.3081 7.6 12.5248V18.6248C7.6 18.8415 7.52917 19.0206 7.3875 19.1623C7.24583 19.304 7.06667 19.3748 6.85 19.3748H0.75Z" fill="#333333"/>
</svg>
