<svg width="52" height="32" viewBox="0 0 52 32" fill="none" xmlns="http://www.w3.org/2000/svg">
<g clip-path="url(#clip0_245_167)">
<path d="M49.8451 -0.143066H1.91961C0.858431 -0.143066 0 0.708133 0 1.75773V30.2441C0 31.2937 0.858431 32.1449 1.91961 32.1449H49.8451C50.9063 32.1449 51.7647 31.2937 51.7647 30.2441V1.75773C51.7647 0.708133 50.9063 -0.143066 49.8451 -0.143066ZM10.1545 22.7988L7.32255 11.9508C7.14784 11.2809 6.99902 11.0377 6.47706 10.754C5.62078 10.2975 4.21235 9.86867 2.96784 9.59987L3.05412 9.2052H9.10196C9.87196 9.2052 10.5665 9.71294 10.7412 10.5919L12.238 18.4596L15.9392 9.2052H19.6749L13.9161 22.7988H10.1545ZM18.2578 22.7988L21.1998 9.2052H24.7565L21.8145 22.7988H18.2578ZM28.2096 23.0143C26.62 22.9951 25.0843 22.6687 24.2539 22.2911L24.8967 19.3108C25.7249 19.6927 26.7624 20.1983 28.5504 20.1705C29.5727 20.1535 30.6684 19.7545 30.6771 18.8415C30.6814 18.2441 30.2198 17.8175 28.8329 17.1519C27.4849 16.5012 25.6969 15.4089 25.7206 13.4527C25.7422 10.8073 28.2161 8.95987 31.7296 8.95987C33.0971 8.95987 34.1992 9.25427 35.0555 9.56147L34.4322 12.4436C32.8404 11.7204 31.4363 11.7695 30.9251 11.8377C29.8984 11.9679 29.4282 12.4863 29.4174 12.9769C29.3808 14.5812 34.4149 14.7775 34.3976 18.3636C34.389 21.186 31.9453 23.0143 28.2096 23.0143ZM43.6808 22.7988L43.2516 20.7679H38.6898L37.95 22.7988H34.2186L39.5504 10.2015C39.8049 9.59987 40.3786 9.2052 41.0623 9.2052H44.0971L46.9678 22.7988H43.6808ZM39.7122 17.9817H42.6606L41.5843 12.8767L39.7122 17.9817Z" fill="#041E42"/>
</g>
<defs>
<clipPath id="clip0_245_167">
<rect width="51.7647" height="32" fill="white"/>
</clipPath>
</defs>
</svg>
