<svg width="18" height="18" viewBox="0 0 18 18" fill="none" xmlns="http://www.w3.org/2000/svg">
<path d="M9.75 6V0.75C9.75 0.533333 9.82083 0.354167 9.9625 0.2125C10.1042 0.0708334 10.2833 0 10.5 0H17.25C17.4667 0 17.6458 0.0708334 17.7875 0.2125C17.9292 0.354167 18 0.533333 18 0.75V6C18 6.21667 17.9292 6.39583 17.7875 6.5375C17.6458 6.67917 17.4667 6.75 17.25 6.75H10.5C10.2833 6.75 10.1042 6.67917 9.9625 6.5375C9.82083 6.39583 9.75 6.21667 9.75 6ZM0 9V0.75C0 0.533333 0.0708334 0.354167 0.2125 0.2125C0.354167 0.0708334 0.533333 0 0.75 0H7.5C7.71667 0 7.89583 0.0708334 8.0375 0.2125C8.17917 0.354167 8.25 0.533333 8.25 0.75V9C8.25 9.21667 8.17917 9.39583 8.0375 9.5375C7.89583 9.67917 7.71667 9.75 7.5 9.75H0.75C0.533333 9.75 0.354167 9.67917 0.2125 9.5375C0.0708334 9.39583 0 9.21667 0 9ZM9.75 17.25V9C9.75 8.78333 9.82083 8.60417 9.9625 8.4625C10.1042 8.32083 10.2833 8.25 10.5 8.25H17.25C17.4667 8.25 17.6458 8.32083 17.7875 8.4625C17.9292 8.60417 18 8.78333 18 9V17.25C18 17.4667 17.9292 17.6458 17.7875 17.7875C17.6458 17.9292 17.4667 18 17.25 18H10.5C10.2833 18 10.1042 17.9292 9.9625 17.7875C9.82083 17.6458 9.75 17.4667 9.75 17.25ZM0 17.25V12C0 11.7833 0.0708334 11.6042 0.2125 11.4625C0.354167 11.3208 0.533333 11.25 0.75 11.25H7.5C7.71667 11.25 7.89583 11.3208 8.0375 11.4625C8.17917 11.6042 8.25 11.7833 8.25 12V17.25C8.25 17.4667 8.17917 17.6458 8.0375 17.7875C7.89583 17.9292 7.71667 18 7.5 18H0.75C0.533333 18 0.354167 17.9292 0.2125 17.7875C0.0708334 17.6458 0 17.4667 0 17.25Z" fill="#041E42"/>
</svg>
