<svg width="47" height="32" viewBox="0 0 47 32" fill="none" xmlns="http://www.w3.org/2000/svg">
<rect x="0.764648" width="46" height="32" rx="4" fill="#F0F0F0"/>
<path d="M28.506 7.61377H18.9985V24.386H28.506V7.61377Z" fill="#FF5F00"/>
<path d="M19.6021 15.9999C19.6006 14.3846 19.9735 12.7902 20.6925 11.3372C21.4115 9.88434 22.4578 8.61105 23.7522 7.61379C22.1493 6.37694 20.2242 5.60776 18.1971 5.39417C16.1699 5.18058 14.1224 5.53118 12.2887 6.40592C10.4549 7.28067 8.90882 8.64425 7.82715 10.3408C6.74548 12.0374 6.17188 13.9984 6.17188 15.9999C6.17188 18.0014 6.74548 19.9624 7.82715 21.659C8.90882 23.3555 10.4549 24.7191 12.2887 25.5939C14.1224 26.4686 16.1699 26.8192 18.1971 26.6056C20.2242 26.392 22.1493 25.6229 23.7522 24.386C22.4578 23.3887 21.4115 22.1154 20.6925 20.6625C19.9735 19.2096 19.6006 17.6152 19.6021 15.9999Z" fill="#EB001B"/>
<path d="M41.332 15.9999C41.332 18.0013 40.7585 19.9624 39.6769 21.659C38.5953 23.3555 37.0492 24.7191 35.2155 25.5938C33.3818 26.4686 31.3343 26.8192 29.3072 26.6056C27.2801 26.392 25.3551 25.6229 23.7522 24.386C25.0454 23.3877 26.0909 22.1142 26.8098 20.6616C27.5287 19.2089 27.9022 17.6149 27.9022 15.9999C27.9022 14.3849 27.5287 12.7909 26.8098 11.3382C26.0909 9.88555 25.0454 8.61206 23.7522 7.61378C25.3551 6.37693 27.2801 5.60776 29.3072 5.39417C31.3343 5.18058 33.3818 5.5312 35.2155 6.40595C37.0492 7.2807 38.5953 8.64428 39.6769 10.3408C40.7585 12.0374 41.332 13.9985 41.332 15.9999Z" fill="#F79E1B"/>
<path d="M40.2953 22.6096V22.2662H40.4363V22.1962H40.0771V22.2662H40.2183V22.6096H40.2953ZM40.9927 22.6096V22.1956H40.8826L40.7559 22.4803L40.6293 22.1956H40.5191V22.6096H40.5968V22.2973L40.7156 22.5665H40.7962L40.915 22.2966V22.6096H40.9927Z" fill="#F79E1B"/>
</svg>
