<svg width="44" height="32" viewBox="0 0 44 32" fill="none" xmlns="http://www.w3.org/2000/svg">
<g clip-path="url(#clip0_253_214)">
<path d="M25.2151 18.9089C23.6225 18.9089 22.2688 18.3432 21.1539 17.2119C20.0391 16.0806 19.4817 14.7068 19.4817 13.0907C19.4817 11.4745 20.0391 10.1008 21.1539 8.96947C22.2688 7.83815 23.6225 7.2725 25.2151 7.2725C26.8077 7.2725 28.1614 7.83815 29.2762 8.96947C30.391 10.1008 30.9484 11.4745 30.9484 13.0907C30.9484 14.7068 30.391 16.0806 29.2762 17.2119C28.1614 18.3432 26.8077 18.9089 25.2151 18.9089ZM9.92617 25.6967C9.12988 25.6967 8.45302 25.4139 7.89562 24.8483C7.33821 24.2826 7.05951 23.5957 7.05951 22.7877V3.39371C7.05951 2.58563 7.33821 1.89876 7.89562 1.3331C8.45302 0.767447 9.12988 0.484619 9.92617 0.484619H40.5039C41.3002 0.484619 41.9771 0.767447 42.5345 1.3331C43.0919 1.89876 43.3706 2.58563 43.3706 3.39371V22.7877C43.3706 23.5957 43.0919 24.2826 42.5345 24.8483C41.9771 25.4139 41.3002 25.6967 40.5039 25.6967H9.92617ZM14.7039 22.7877H35.7262C35.7262 21.4301 36.188 20.2826 37.1117 19.3452C38.0354 18.4079 39.1662 17.9392 40.5039 17.9392V8.2422C39.1662 8.2422 38.0354 7.77351 37.1117 6.83613C36.188 5.89876 35.7262 4.75129 35.7262 3.39371H14.7039C14.7039 4.75129 14.2421 5.89876 13.3184 6.83613C12.3947 7.77351 11.2639 8.2422 9.92617 8.2422V17.9392C11.2639 17.9392 12.3947 18.4079 13.3184 19.3452C14.2421 20.2826 14.7039 21.4301 14.7039 22.7877ZM37.6373 31.5149H4.19284C3.39654 31.5149 2.71969 31.2321 2.16228 30.6664C1.60488 30.1008 1.32617 29.4139 1.32617 28.6058V6.3028H4.19284V28.6058H37.6373V31.5149ZM9.92617 22.7877V3.39371V22.7877Z" fill="#041E42"/>
</g>
<defs>
<clipPath id="clip0_253_214">
<rect width="43" height="32" fill="white" transform="translate(0.764648)"/>
</clipPath>
</defs>
</svg>
