<svg width="20" height="20" viewBox="0 0 20 20" fill="none" xmlns="http://www.w3.org/2000/svg">
<path d="M2.5 20C2.1 20 1.75 19.8375 1.45 19.5125C1.15 19.1875 1 18.8333 1 18.45V6.15C0.766667 6.11667 0.541667 5.95 0.325 5.65C0.108333 5.35 0 5.025 0 4.675V1.5C0 1.11667 0.15 0.770833 0.45 0.4625C0.75 0.154167 1.1 0 1.5 0H18.5C18.8833 0 19.2292 0.154167 19.5375 0.4625C19.8458 0.770833 20 1.11667 20 1.5V4.675C20 5.025 19.8917 5.35 19.675 5.65C19.4583 5.95 19.2333 6.11667 19 6.15V18.45C19 18.8333 18.8458 19.1875 18.5375 19.5125C18.2292 19.8375 17.8833 20 17.5 20H2.5ZM18.5 4.675V1.5H1.5V4.675H18.5ZM7.75 11.425H12.25C12.4667 11.425 12.6458 11.3542 12.7875 11.2125C12.9292 11.0708 13 10.8917 13 10.675C13 10.4583 12.9292 10.2792 12.7875 10.1375C12.6458 9.99583 12.4667 9.925 12.25 9.925H7.75C7.53333 9.925 7.35417 9.99583 7.2125 10.1375C7.07083 10.2792 7 10.4583 7 10.675C7 10.8917 7.07083 11.0708 7.2125 11.2125C7.35417 11.3542 7.53333 11.425 7.75 11.425Z" fill="#333333"/>
</svg>
