<svg width="43" height="32" viewBox="0 0 43 32" fill="none" xmlns="http://www.w3.org/2000/svg">
<path d="M24.2151 18.9089C22.6225 18.9089 21.2688 18.3432 20.1539 17.2119C19.0391 16.0806 18.4817 14.7068 18.4817 13.0907C18.4817 11.4745 19.0391 10.1008 20.1539 8.96947C21.2688 7.83815 22.6225 7.2725 24.2151 7.2725C25.8077 7.2725 27.1614 7.83815 28.2762 8.96947C29.391 10.1008 29.9484 11.4745 29.9484 13.0907C29.9484 14.7068 29.391 16.0806 28.2762 17.2119C27.1614 18.3432 25.8077 18.9089 24.2151 18.9089ZM8.92617 25.6967C8.12988 25.6967 7.45302 25.4139 6.89562 24.8483C6.33821 24.2826 6.05951 23.5957 6.05951 22.7877V3.39371C6.05951 2.58563 6.33821 1.89876 6.89562 1.3331C7.45302 0.767447 8.12988 0.484619 8.92617 0.484619H39.5039C40.3002 0.484619 40.9771 0.767447 41.5345 1.3331C42.0919 1.89876 42.3706 2.58563 42.3706 3.39371V22.7877C42.3706 23.5957 42.0919 24.2826 41.5345 24.8483C40.9771 25.4139 40.3002 25.6967 39.5039 25.6967H8.92617ZM13.7039 22.7877H34.7262C34.7262 21.4301 35.188 20.2826 36.1117 19.3452C37.0354 18.4079 38.1662 17.9392 39.5039 17.9392V8.2422C38.1662 8.2422 37.0354 7.77351 36.1117 6.83613C35.188 5.89876 34.7262 4.75129 34.7262 3.39371H13.7039C13.7039 4.75129 13.2421 5.89876 12.3184 6.83613C11.3947 7.77351 10.2639 8.2422 8.92617 8.2422V17.9392C10.2639 17.9392 11.3947 18.4079 12.3184 19.3452C13.2421 20.2826 13.7039 21.4301 13.7039 22.7877ZM36.6373 31.5149H3.19284C2.39654 31.5149 1.71969 31.2321 1.16228 30.6664C0.604876 30.1008 0.326172 29.4139 0.326172 28.6058V6.3028H3.19284V28.6058H36.6373V31.5149ZM8.92617 22.7877V3.39371V22.7877Z" fill="#041E42"/>
</svg>
